<svg id="Groupe_24" data-name="Groupe 24" xmlns="http://www.w3.org/2000/svg" xmlns:xlink="http://www.w3.org/1999/xlink" width="113.192" height="154.158" viewBox="0 0 113.192 154.158">
  <defs>
    <clipPath id="clip-path">
      <rect id="Rectangle_23" data-name="Rectangle 23" width="113.192" height="154.158" fill="none"/>
    </clipPath>
  </defs>
  <g id="Groupe_14" data-name="Groupe 14" clip-path="url(#clip-path)">
    <path id="Tracé_23" data-name="Tracé 23" d="M.011,0H14.7V53.291C14.7,74.363,19.354,84.9,32.708,84.9c9.677,0,16.906-3.185,22.3-9.434l1.591,1.1S49.246,87.1,31.728,87.1c-11.637,0-19.111-4.042-23.888-9.432C1.347,70.442,0,62.112,0,52.19V1.839Z" transform="translate(0)"/>
    <path id="Tracé_24" data-name="Tracé 24" d="M203.686,161.341H189.06V108.05c0-21.071-4.653-31.607-18.007-31.607-9.677,0-16.906,3.185-22.3,9.434l-1.592-1.1s7.35-10.536,24.868-10.536c11.637,0,19.111,4.042,23.888,9.432,6.494,7.229,7.84,15.56,7.84,25.482v52.19" transform="translate(-90.569 -45.688)"/>
    <rect id="Rectangle_22" data-name="Rectangle 22" width="16.819" height="1.899" transform="translate(48.186 56.469)"/>
    <path id="Tracé_25" data-name="Tracé 25" d="M30,363.867l-.061,5.2H18.817a13.9,13.9,0,0,0,.795-4.982v-9.9a13.9,13.9,0,0,0-.795-4.982h4.737a16.019,16.019,0,0,0-.673,4.982v9.9a26.928,26.928,0,0,0,.214,3.82h.458c3.423,0,5.1-1.345,6.448-4.034" transform="translate(-11.58 -214.905)"/>
    <path id="Tracé_26" data-name="Tracé 26" d="M106.157,364.234a13.223,13.223,0,0,0,.856,4.829h-4.645a13.91,13.91,0,0,0,.855-4.829V353.66l-5.073,15.4H96.469L91.3,353.629v10.6a13.166,13.166,0,0,0,.825,4.829h-2.9a13.84,13.84,0,0,0,.825-4.829V353.11a7.389,7.389,0,0,0-.825-3.912h5.409a2.763,2.763,0,0,0-.305,1.467,10.476,10.476,0,0,0,.55,3.117l3.453,10.88,3.423-10.88a11.07,11.07,0,0,0,.52-3.087,2.527,2.527,0,0,0-.336-1.5h5.073a6.808,6.808,0,0,0-.856,3.912Z" transform="translate(-54.912 -214.905)"/>
    <path id="Tracé_27" data-name="Tracé 27" d="M192.005,358.794c0,6.662-3.851,10.268-8.649,10.268h-5.684a13.893,13.893,0,0,0,.795-4.981v-9.9a13.956,13.956,0,0,0-.795-4.981h6.113c4.4,0,8.221,3.025,8.221,9.6m-3.515.672c0-5.226-1.833-9.168-5.837-9.168h-.794c-.092,1.375-.123,2.536-.123,3.881v9.9a31.491,31.491,0,0,0,.183,3.79,8.76,8.76,0,0,0,1.284.092c4,0,5.287-3.942,5.287-8.5" transform="translate(-109.344 -214.905)"/>
    <path id="Tracé_28" data-name="Tracé 28" d="M270.794,364.081a13.279,13.279,0,0,0,.794,4.981h-4.767a13.171,13.171,0,0,0,.733-4.981V359.13h-6.143v4.951a12.63,12.63,0,0,0,.764,4.981h-4.8a13.894,13.894,0,0,0,.8-4.981v-9.9a13.9,13.9,0,0,0-.8-4.981h4.768a13.157,13.157,0,0,0-.733,4.981v3.973h6.143v-3.973a13.171,13.171,0,0,0-.733-4.981h4.767a13.917,13.917,0,0,0-.794,4.981Z" transform="translate(-158.396 -214.905)"/>
  </g>
</svg>
