<svg id="Groupe_23" data-name="Groupe 23" xmlns="http://www.w3.org/2000/svg" xmlns:xlink="http://www.w3.org/1999/xlink" width="416.117" height="325.617" viewBox="0 0 416.117 325.617">
  <defs>
    <clipPath id="clip-path">
      <rect id="Rectangle_14" data-name="Rectangle 14" width="416.117" height="325.617" fill="none"/>
    </clipPath>
  </defs>
  <g id="Groupe_8" data-name="Groupe 8" clip-path="url(#clip-path)">
    <path id="Tracé_10" data-name="Tracé 10" d="M181.995,0h24.146V87.594c0,34.635,7.649,51.952,29.6,51.952,15.906,0,27.787-5.235,36.648-15.507L275,125.853s-12.082,17.318-40.875,17.318c-19.128,0-31.413-6.644-39.264-15.5-10.673-11.882-12.887-25.574-12.887-41.884V3.022Z" transform="translate(-66.945)" fill="#fff"/>
    <path id="Tracé_11" data-name="Tracé 11" d="M422.169,217.408H398.006V129.814c0-34.635-7.649-51.952-29.6-51.952-15.907,0-27.788,5.236-36.649,15.507l-2.616-1.814s12.082-17.318,40.875-17.318c19.128,0,31.413,6.644,39.264,15.5,10.673,11.882,12.887,25.574,12.887,41.884v85.783Z" transform="translate(-121.084 -27.31)" fill="#fff"/>
    <rect id="Rectangle_13" data-name="Rectangle 13" width="27.646" height="3.121" transform="translate(194.235 92.817)" fill="#fff"/>
    <path id="Tracé_12" data-name="Tracé 12" d="M43.931,377.185l-.24,20.4H0a54.612,54.612,0,0,0,3.121-19.565V339.136A54.618,54.618,0,0,0,0,319.571H18.6a62.9,62.9,0,0,0-2.641,19.565v38.889a105.738,105.738,0,0,0,.841,15h1.8c13.443,0,20.045-5.281,25.326-15.844" transform="translate(0 -117.563)" fill="#fff"/>
    <path id="Tracé_13" data-name="Tracé 13" d="M234.722,378.626a51.938,51.938,0,0,0,3.36,18.964H219.839a54.62,54.62,0,0,0,3.36-18.964V337.1L203.274,397.59h-6.6l-20.285-60.615v41.651a51.7,51.7,0,0,0,3.242,18.964h-11.4a54.365,54.365,0,0,0,3.241-18.964V334.935c0-6-.6-10.8-3.241-15.364H189.47c-.839,1.2-1.2,3.362-1.2,5.762a41.156,41.156,0,0,0,2.161,12.243l13.563,42.73,13.443-42.73a43.514,43.514,0,0,0,2.04-12.123c0-2.52-.36-4.682-1.32-5.882h19.924c-2.88,4.561-3.36,9.243-3.36,15.364Z" transform="translate(-61.887 -117.563)" fill="#fff"/>
    <path id="Tracé_14" data-name="Tracé 14" d="M435.845,357.261c0,26.166-15.124,40.329-33.968,40.329H379.552a54.612,54.612,0,0,0,3.12-19.565V339.137c0-7.2-.96-14.043-3.12-19.565h24.005c17.284,0,32.288,11.883,32.288,37.689m-13.8,2.64c0-20.524-7.2-36.008-22.925-36.008H396c-.36,5.4-.48,9.962-.48,15.244v38.889a123.51,123.51,0,0,0,.721,14.884,34.347,34.347,0,0,0,5.041.36c15.724,0,20.765-15.483,20.765-33.368" transform="translate(-139.629 -117.563)" fill="#fff"/>
    <path id="Tracé_15" data-name="Tracé 15" d="M622.684,378.025c0,6.482.48,12.6,3.12,19.565H607.08c2.641-6.962,2.881-13.083,2.881-19.565V358.581H585.835v19.444c0,6.482.24,12.6,3,19.565H569.992a54.625,54.625,0,0,0,3.12-19.565V339.136a54.63,54.63,0,0,0-3.12-19.565h18.724c-2.641,6.962-2.881,13.084-2.881,19.565v15.6h24.126v-15.6c0-6.482-.24-12.6-2.881-19.565H625.8a54.63,54.63,0,0,0-3.12,19.565Z" transform="translate(-209.687 -117.563)" fill="#fff"/>
    <path id="Tracé_16" data-name="Tracé 16" d="M18.939,490.491a6.561,6.561,0,0,1-6.216,3.986c-5.046,0-7.971-3.546-7.971-8.264,0-4.534,3.145-8.118,7.678-8.118a7.334,7.334,0,0,1,6.619,3.913l.549-3.474h.841v15.358c0,4.973-3,7.606-7.716,7.606a12.633,12.633,0,0,1-5.668-1.243l.585-1.207a11.193,11.193,0,0,0,5.046,1.134c3.876,0,6.29-2.194,6.252-6.472Zm-.036-4.278c0-4.315-2.889-6.875-6.363-6.875-3.4,0-6.252,2.523-6.252,6.875,0,4.278,2.669,7.021,6.326,7.021,3.4,0,6.29-2.743,6.29-7.021" transform="translate(-1.748 -175.88)" fill="#fff"/>
    <path id="Tracé_17" data-name="Tracé 17" d="M166.064,478.534h.8l.511,2.6a5.1,5.1,0,0,1,4.5-3.035,4.89,4.89,0,0,1,2.487.621L174,480l-.183.073a4.11,4.11,0,0,0-2.377-.549,4.386,4.386,0,0,0-3.876,3.364v11.153h-1.5Z" transform="translate(-61.091 -175.88)" fill="#fff"/>
    <path id="Tracé_18" data-name="Tracé 18" d="M310.487,486.213a7.76,7.76,0,0,1,7.971-8.118,7.841,7.841,0,0,1,7.862,8.118c0,4.718-3.327,8.264-7.972,8.264a7.966,7.966,0,0,1-7.861-8.264m14.3,0a6.528,6.528,0,0,0-6.436-6.875c-3.29,0-6.362,2.56-6.362,6.875a6.736,6.736,0,0,0,6.472,7.021c3.291,0,6.326-2.743,6.326-7.021" transform="translate(-114.221 -175.88)" fill="#fff"/>
    <path id="Tracé_19" data-name="Tracé 19" d="M482.516,491.66a6.928,6.928,0,0,1-5.887,3.108,6.672,6.672,0,0,1-6.911-7.02v-8.959h1.535v8.959a5.368,5.368,0,0,0,5.486,5.668,5.767,5.767,0,0,0,5.7-5.668v-8.959h1.5v15.5h-.8Z" transform="translate(-172.799 -176.136)" fill="#fff"/>
    <path id="Tracé_20" data-name="Tracé 20" d="M630.215,490.491v10.422l-1.353.475h-.147V478.534h.841l.549,3.474a7.391,7.391,0,0,1,6.655-3.913c4.534,0,7.642,3.583,7.642,8.118,0,4.718-3.108,8.264-7.752,8.264a7.083,7.083,0,0,1-6.436-3.986m12.652-4.278c0-3.986-2.815-6.875-6.216-6.875-3.474,0-6.4,2.56-6.4,6.875a6.652,6.652,0,0,0,6.509,7.021c3.474,0,6.106-3.109,6.106-7.021" transform="translate(-231.291 -175.88)" fill="#fff"/>
  </g>
</svg>
